<?xml version="1.0" encoding="UTF-8"?>
<svg id="Calque_2" data-name="Calque 2" xmlns="http://www.w3.org/2000/svg" viewBox="0 0 569.92 569.92">
  <g id="Calque_1-2" data-name="Calque 1">
    <path d="M284.96,0C127.58,0,0,127.58,0,284.96s127.58,284.96,284.96,284.96,284.96-127.58,284.96-284.96S442.34,0,284.96,0Zm0,519.25c-129.39,0-234.29-104.89-234.29-234.29S155.57,50.67,284.96,50.67s234.29,104.89,234.29,234.29-104.89,234.29-234.29,234.29Z" style="fill: blue;"/>
    <path d="M150.08,452.03l7.05-43.71,133.94-97.75c50.29-37.13,68.62-64.86,68.62-104.8,0-31.96-20.68-52.64-53.11-52.64-37.13,0-61.1,26.79-66.27,73.32h-58.28c9.87-78.02,57.81-124.54,129.24-124.54,65.8,0,108.56,40.42,108.56,101.51,0,53.58-31.02,99.63-98.69,147.57l-64.39,46.53h134.41l-8.46,54.52H150.08Z" style="fill: blue;"/>
  </g>
</svg>