<?xml version="1.0" encoding="UTF-8"?>
<svg id="Calque_2" data-name="Calque 2" xmlns="http://www.w3.org/2000/svg" viewBox="0 0 569.92 569.92">
  <g id="Calque_1-2" data-name="Calque 1">
    <path d="M284.96,0C127.58,0,0,127.58,0,284.96s127.58,284.96,284.96,284.96,284.96-127.58,284.96-284.96S442.34,0,284.96,0Zm0,519.25c-129.39,0-234.29-104.89-234.29-234.29S155.57,50.67,284.96,50.67s234.29,104.89,234.29,234.29-104.89,234.29-234.29,234.29Z" style="fill: blue;"/>
    <path d="M231.15,282.61l6.11-37.6,98.69-83.65H196.84l8.46-51.23h212.9l-7.05,47-98.69,83.66c47.94,10.34,80.37,49.82,80.37,101.51,0,69.56-50.29,117.49-123.13,117.49s-117.96-44.65-117.96-115.61h57.81c0,39.48,22.56,63.92,59.22,63.92,39.01,0,63.92-25.38,63.92-65.33,0-37.6-23.5-60.16-62.98-60.16h-38.54Z" style="fill: blue;"/>
  </g>
</svg>