<?xml version="1.0" standalone="no"?>
<!DOCTYPE svg PUBLIC "-//W3C//DTD SVG 20010904//EN"
 "http://www.w3.org/TR/2001/REC-SVG-20010904/DTD/svg10.dtd">
<svg version="1.0" xmlns="http://www.w3.org/2000/svg"
 width="3342.000000pt" height="3342.000000pt" viewBox="0 0 3342.000000 3342.000000"
 preserveAspectRatio="xMidYMid meet">
<metadata>
Created by potrace 1.14, written by Peter Selinger 2001-2017
</metadata>
<g transform="translate(0.000000,3342.000000) scale(0.100000,-0.100000)"
fill="#000000" stroke="none">
<path d="M16297 33414 c-1 -1 -90 -5 -197 -8 -107 -4 -229 -9 -270 -11 -189
-11 -377 -23 -445 -30 -27 -2 -86 -7 -130 -10 -44 -4 -95 -8 -113 -10 -18 -2
-68 -7 -110 -10 -42 -3 -84 -8 -92 -10 -8 -2 -51 -7 -95 -10 -44 -4 -87 -8
-95 -11 -8 -2 -40 -6 -70 -9 -30 -3 -67 -8 -82 -10 -15 -3 -47 -7 -70 -10 -53
-5 -125 -14 -158 -20 -14 -2 -45 -7 -70 -10 -45 -6 -75 -11 -127 -20 -16 -2
-46 -7 -68 -9 -22 -3 -51 -8 -65 -11 -14 -3 -45 -8 -70 -11 -25 -3 -52 -7 -60
-9 -8 -3 -32 -7 -54 -11 -21 -3 -48 -8 -60 -10 -11 -3 -39 -7 -61 -10 -40 -6
-655 -130 -687 -139 -10 -3 -28 -7 -40 -10 -60 -12 -136 -30 -283 -67 -88 -22
-167 -41 -176 -43 -43 -9 -230 -58 -269 -71 -25 -8 -103 -30 -175 -50 -726
-200 -1683 -556 -2440 -909 -364 -170 -1003 -501 -1210 -627 -16 -10 -37 -21
-45 -25 -43 -20 -541 -322 -710 -431 -298 -192 -610 -405 -835 -572 -196 -145
-484 -364 -583 -445 -201 -164 -332 -272 -393 -324 -42 -37 -85 -73 -96 -82
-32 -26 -230 -203 -408 -364 -234 -213 -709 -687 -940 -940 -49 -54 -99 -108
-110 -119 -11 -12 -69 -77 -130 -146 -60 -69 -112 -127 -115 -130 -30 -29
-398 -473 -485 -586 -16 -21 -48 -61 -70 -89 -78 -97 -343 -452 -451 -605
-325 -457 -682 -1019 -912 -1430 -14 -25 -44 -79 -67 -120 -42 -75 -98 -178
-187 -345 -84 -156 -418 -837 -418 -851 0 -2 -18 -42 -40 -89 -22 -47 -40 -87
-40 -89 0 -3 -13 -33 -29 -68 -42 -91 -176 -414 -228 -548 -24 -63 -47 -124
-52 -135 -48 -108 -207 -559 -316 -895 -95 -295 -271 -914 -300 -1057 -2 -10
-15 -64 -29 -120 -22 -85 -41 -169 -101 -443 -17 -77 -39 -191 -60 -304 -8
-43 -17 -86 -19 -95 -3 -9 -8 -36 -11 -61 -4 -25 -10 -63 -15 -85 -5 -22 -11
-60 -15 -85 -3 -25 -8 -52 -10 -60 -2 -8 -6 -31 -9 -50 -3 -19 -14 -91 -25
-160 -11 -69 -22 -145 -26 -170 -8 -65 -29 -212 -39 -285 -3 -22 -8 -64 -11
-92 -3 -29 -7 -65 -9 -80 -2 -16 -7 -55 -11 -88 -3 -33 -8 -76 -10 -95 -2 -19
-7 -62 -10 -95 -3 -33 -7 -82 -10 -110 -3 -27 -7 -77 -10 -110 -3 -33 -8 -91
-11 -130 -2 -38 -6 -92 -9 -120 -2 -27 -7 -95 -10 -150 -3 -55 -8 -138 -10
-185 -26 -456 -26 -1340 0 -1745 9 -145 16 -263 21 -340 2 -44 6 -93 8 -110 3
-16 8 -75 11 -130 4 -55 8 -106 10 -115 2 -8 6 -49 9 -90 4 -41 9 -91 11 -110
2 -19 7 -60 10 -90 6 -54 10 -91 20 -170 3 -22 7 -57 10 -77 2 -21 7 -57 10
-80 3 -24 7 -62 10 -85 3 -24 8 -54 10 -68 2 -14 7 -45 10 -70 6 -45 22 -153
30 -200 2 -14 11 -68 20 -120 8 -52 17 -108 20 -125 40 -223 70 -381 90 -475
13 -63 26 -128 29 -145 8 -44 12 -63 31 -140 9 -38 19 -81 21 -95 48 -255 351
-1349 423 -1525 4 -11 15 -42 24 -70 50 -158 264 -747 297 -820 5 -11 39 -94
76 -185 36 -91 74 -183 84 -205 10 -22 39 -89 65 -150 26 -60 58 -132 70 -160
13 -27 36 -79 52 -115 82 -180 149 -319 273 -565 140 -277 237 -462 250 -480
4 -5 22 -37 40 -70 238 -443 663 -1124 974 -1560 31 -44 68 -96 82 -115 36
-51 192 -262 207 -280 7 -8 23 -31 37 -50 14 -19 30 -42 37 -50 6 -8 62 -80
124 -160 110 -143 346 -432 439 -540 27 -30 80 -93 119 -139 40 -46 77 -89 84
-96 7 -6 31 -34 54 -61 23 -27 57 -65 75 -85 18 -19 78 -84 133 -143 281 -306
756 -779 1006 -1001 24 -22 85 -77 134 -122 50 -44 162 -143 250 -218 88 -75
171 -147 185 -159 114 -102 681 -542 945 -732 188 -136 806 -554 819 -554 2 0
31 -17 63 -39 65 -43 560 -341 567 -341 2 0 33 -17 67 -38 35 -22 100 -58 144
-82 70 -37 157 -84 360 -193 112 -61 511 -258 670 -331 94 -43 208 -96 253
-117 46 -22 86 -39 88 -39 2 0 27 -11 56 -24 178 -80 596 -249 878 -353 257
-95 753 -262 910 -307 224 -64 481 -138 505 -146 51 -16 627 -158 669 -164 21
-4 41 -8 45 -11 9 -5 515 -108 636 -129 50 -9 99 -18 110 -20 20 -4 197 -34
245 -41 221 -35 254 -40 370 -55 47 -6 95 -13 106 -15 12 -2 48 -6 80 -10 33
-4 69 -8 82 -10 13 -2 53 -7 90 -11 37 -3 74 -8 83 -9 9 -2 52 -6 95 -10 43
-4 86 -9 95 -10 8 -2 55 -6 105 -10 49 -4 100 -8 114 -11 14 -2 70 -6 125 -9
55 -3 117 -8 138 -10 20 -3 88 -7 150 -10 61 -3 144 -8 182 -10 410 -25 1219
-25 1735 0 112 5 391 24 460 30 25 3 79 7 120 10 41 3 91 8 110 10 19 2 64 7
100 10 36 3 76 8 90 10 14 2 59 7 100 11 41 3 82 7 90 9 8 2 44 6 80 9 36 4
76 9 90 11 14 2 43 7 65 9 95 12 133 17 185 26 30 6 75 12 100 14 46 5 107 14
144 22 11 3 39 7 61 10 22 3 78 12 125 20 81 13 104 17 160 29 14 2 41 7 60
11 128 21 451 86 575 114 28 6 57 13 65 15 8 2 45 10 81 19 37 8 78 17 90 20
13 2 62 14 109 26 47 12 93 24 103 26 10 2 27 6 37 9 10 3 28 8 39 10 12 3 30
7 42 10 11 2 80 20 152 40 73 20 139 38 148 40 121 25 1037 314 1179 372 8 4
17 7 20 8 3 1 12 4 20 8 8 3 67 25 130 47 63 23 124 46 135 50 11 5 108 43
215 86 210 82 532 218 725 307 66 30 147 67 180 82 91 41 605 297 734 365 169
90 451 246 526 291 17 10 44 26 60 35 44 24 405 242 527 318 184 115 745 494
829 560 14 12 36 28 49 36 18 12 130 95 274 203 46 34 338 261 361 279 11 9
88 72 170 139 149 122 421 352 440 373 6 6 46 43 90 81 44 39 89 79 101 90 11
11 65 61 119 110 200 183 473 451 685 672 231 240 268 280 564 613 76 85 311
367 410 490 59 74 117 145 127 158 69 81 427 562 574 772 36 51 304 452 332
496 7 10 54 84 104 164 90 141 233 376 282 462 14 24 48 84 77 133 73 125 198
352 281 508 72 135 359 711 359 720 0 2 25 58 55 123 31 66 61 130 67 144 6
14 14 32 18 40 17 35 200 468 200 474 0 3 9 25 20 49 54 117 221 568 332 897
70 210 183 564 193 608 2 9 29 105 60 212 45 156 155 578 170 650 2 8 10 45
19 81 8 37 17 78 20 90 2 13 9 42 14 64 6 22 14 56 17 75 3 19 12 60 20 90 7
30 16 72 19 93 4 22 13 69 21 105 14 67 60 310 69 367 3 17 12 73 21 125 9 52
18 111 21 130 3 19 7 46 9 60 2 14 9 57 15 95 6 39 13 81 15 95 2 14 6 45 10
70 3 25 8 56 10 70 2 14 7 48 10 75 3 28 10 84 15 125 5 41 12 98 15 125 3 28
8 64 10 80 2 17 7 62 10 100 4 39 8 81 10 95 2 14 7 61 10 105 4 44 8 96 10
115 2 19 7 78 10 130 4 52 8 111 11 130 2 19 6 85 9 145 4 61 8 137 10 170 25
376 25 1336 0 1760 -16 273 -30 473 -40 560 -2 22 -7 74 -10 115 -3 41 -7 89
-9 105 -2 17 -7 64 -11 105 -4 41 -8 82 -10 90 -1 8 -6 46 -10 83 -3 37 -8 76
-10 85 -1 9 -6 46 -10 82 -4 36 -8 72 -10 80 -2 8 -6 44 -10 80 -4 36 -8 67
-10 70 -2 3 -6 31 -10 63 -3 32 -10 80 -15 105 -5 26 -12 74 -15 107 -4 33 -9
63 -11 66 -1 3 -6 28 -9 55 -4 27 -9 57 -11 67 -3 10 -7 31 -10 47 -9 62 -13
88 -33 195 -11 61 -24 130 -30 155 -5 25 -13 61 -16 80 -4 28 -66 319 -80 380
-2 8 -10 47 -19 87 -8 39 -27 118 -41 175 -15 57 -28 111 -30 121 -8 36 -117
453 -131 497 -7 25 -41 137 -74 250 -126 425 -357 1090 -483 1390 -5 14 -11
30 -13 35 -4 14 -82 201 -105 252 -10 23 -19 45 -19 48 0 4 -14 37 -31 73 -17
37 -39 87 -49 112 -10 25 -35 81 -55 125 -21 44 -57 125 -82 180 -110 244
-392 802 -543 1070 -11 19 -36 65 -56 102 -21 37 -55 97 -76 132 -21 34 -38
65 -38 67 0 5 -247 413 -330 544 -114 180 -306 469 -440 660 -108 154 -425
587 -440 600 -3 3 -37 46 -75 95 -205 266 -635 776 -795 945 -14 15 -47 51
-74 81 -76 85 -343 363 -458 479 -231 232 -427 417 -737 699 -49 44 -146 129
-231 201 -47 40 -109 93 -139 119 -42 35 -270 221 -411 334 -519 416 -1366
992 -1950 1325 -19 11 -64 36 -100 57 -86 49 -221 125 -312 174 -40 22 -107
58 -148 80 -137 74 -692 348 -875 431 -335 153 -777 336 -1090 452 -44 17 -89
34 -100 38 -88 38 -664 230 -875 293 -47 14 -130 39 -185 56 -234 70 -869 234
-985 255 -14 2 -54 11 -90 20 -36 8 -76 17 -90 20 -14 3 -65 14 -115 24 -49
11 -106 23 -125 26 -19 3 -91 16 -160 30 -69 13 -141 27 -160 30 -19 3 -46 8
-60 11 -13 3 -40 7 -60 10 -20 3 -47 8 -60 10 -42 9 -328 53 -390 60 -19 3
-50 7 -68 10 -33 6 -61 10 -142 20 -63 7 -130 16 -160 21 -14 2 -56 6 -95 10
-38 3 -72 8 -75 9 -3 2 -45 6 -95 10 -49 4 -98 9 -107 10 -9 2 -52 6 -95 10
-43 3 -94 8 -113 10 -19 2 -69 7 -110 10 -41 3 -104 7 -140 10 -146 11 -211
15 -325 20 -66 3 -169 8 -230 11 -104 5 -1053 12 -1058 8z m878 -2978 c283
-11 446 -20 580 -31 28 -2 79 -7 115 -10 151 -12 190 -16 275 -25 50 -6 115
-13 145 -16 30 -3 66 -7 80 -9 22 -4 96 -13 230 -31 92 -11 190 -26 235 -34
28 -5 68 -12 90 -15 42 -6 251 -41 295 -50 14 -2 36 -7 50 -10 14 -3 43 -8 65
-11 22 -3 43 -8 46 -10 3 -2 21 -6 40 -9 19 -3 48 -8 64 -11 37 -7 317 -70
404 -90 36 -9 72 -17 80 -19 9 -2 70 -17 136 -34 66 -18 129 -34 141 -36 40
-9 471 -134 567 -165 53 -17 99 -31 102 -31 6 0 441 -150 540 -187 259 -95
642 -251 871 -355 231 -105 261 -120 514 -246 293 -146 303 -152 695 -371 78
-43 411 -244 468 -282 32 -21 60 -38 62 -38 7 0 465 -305 489 -325 6 -5 40
-30 76 -54 57 -39 463 -340 509 -376 9 -8 79 -64 156 -126 77 -62 165 -133
195 -158 57 -47 256 -218 276 -236 6 -5 29 -26 50 -45 275 -246 343 -311 598
-565 216 -215 445 -457 581 -614 17 -19 37 -42 45 -51 8 -8 57 -65 109 -125
51 -61 103 -121 115 -135 12 -14 88 -108 169 -210 168 -211 153 -193 192 -245
17 -22 32 -42 35 -45 3 -3 27 -34 54 -70 26 -36 56 -76 66 -90 79 -106 236
-331 359 -515 502 -750 916 -1524 1257 -2347 41 -101 79 -192 84 -203 26 -55
190 -504 252 -690 72 -215 93 -282 153 -490 20 -66 42 -142 50 -170 8 -27 17
-59 20 -70 3 -11 32 -126 65 -255 33 -128 62 -243 64 -255 2 -11 11 -51 21
-90 18 -80 73 -335 81 -380 3 -16 9 -48 14 -70 5 -22 11 -60 15 -85 3 -25 8
-52 10 -60 4 -14 7 -29 19 -107 3 -16 12 -69 21 -120 8 -51 18 -111 21 -135 3
-24 9 -68 15 -98 5 -30 11 -77 14 -105 4 -27 8 -61 10 -75 6 -36 33 -264 40
-335 3 -33 8 -76 11 -95 6 -45 11 -105 29 -335 1 -16 5 -86 9 -155 4 -69 9
-141 11 -160 22 -186 22 -1173 0 -1455 -2 -22 -6 -96 -10 -165 -4 -69 -8 -141
-10 -160 -3 -34 -11 -123 -20 -225 -5 -59 -14 -156 -20 -205 -2 -19 -7 -60
-10 -90 -3 -30 -10 -86 -15 -125 -5 -38 -12 -95 -15 -125 -3 -30 -8 -62 -10
-70 -2 -8 -7 -40 -10 -70 -3 -30 -8 -62 -10 -70 -2 -8 -6 -35 -9 -60 -3 -25
-8 -54 -10 -65 -2 -11 -7 -40 -11 -65 -4 -25 -9 -52 -10 -61 -2 -9 -6 -34 -9
-55 -10 -65 -68 -373 -80 -424 -3 -14 -8 -36 -10 -50 -7 -40 -55 -259 -72
-325 -8 -33 -17 -71 -19 -85 -3 -14 -28 -110 -55 -215 -28 -104 -52 -199 -55
-209 -2 -10 -16 -60 -31 -110 -14 -50 -28 -98 -30 -106 -45 -185 -337 -1030
-430 -1245 -10 -22 -19 -44 -20 -50 -3 -12 -113 -272 -142 -335 -11 -25 -38
-85 -60 -135 -183 -413 -455 -939 -697 -1345 -37 -63 -73 -124 -79 -135 -6
-11 -19 -31 -27 -45 -9 -14 -72 -113 -140 -220 -274 -433 -617 -907 -958
-1325 -189 -231 -450 -527 -641 -729 -212 -223 -624 -627 -779 -762 -24 -22
-69 -62 -100 -90 -50 -46 -130 -116 -171 -150 -8 -7 -64 -54 -125 -105 -231
-194 -685 -545 -851 -659 -12 -8 -78 -54 -146 -102 -144 -100 -254 -173 -428
-285 -204 -131 -240 -153 -246 -153 -3 0 -20 -10 -37 -22 -18 -13 -41 -28 -52
-34 -11 -6 -105 -61 -210 -121 -345 -199 -745 -408 -1031 -539 -32 -15 -88
-40 -124 -57 -82 -37 -295 -131 -357 -158 -13 -5 -33 -13 -45 -19 -254 -110
-1127 -425 -1262 -455 -12 -2 -97 -27 -191 -55 -333 -99 -863 -228 -1195 -291
-63 -11 -124 -23 -135 -25 -11 -2 -33 -7 -50 -9 -16 -3 -79 -14 -140 -25 -105
-18 -144 -24 -217 -35 -57 -8 -252 -36 -283 -40 -48 -7 -185 -24 -240 -29 -27
-3 -88 -10 -135 -15 -47 -6 -119 -13 -160 -16 -41 -4 -93 -8 -115 -10 -169
-16 -447 -32 -695 -41 -439 -16 -1213 0 -1525 32 -22 2 -71 6 -110 9 -38 3
-90 8 -115 10 -138 13 -269 27 -295 30 -16 3 -48 6 -70 9 -22 2 -62 7 -90 11
-27 3 -63 8 -80 10 -75 9 -192 26 -215 30 -13 3 -42 7 -65 10 -66 10 -336 55
-390 65 -91 18 -350 70 -375 75 -66 14 -127 27 -150 31 -14 3 -43 10 -65 16
-22 5 -51 12 -65 15 -14 2 -122 29 -240 59 -118 31 -222 57 -230 59 -8 2 -49
14 -90 25 -41 12 -82 23 -90 25 -18 5 -204 61 -345 104 -363 113 -1019 357
-1293 482 -35 16 -65 29 -67 29 -4 0 -196 87 -325 147 -129 60 -460 225 -575
286 -209 112 -323 174 -397 218 -27 16 -50 29 -52 29 -6 0 -398 238 -511 310
-55 35 -181 118 -279 184 -98 67 -195 132 -215 145 -46 31 -354 253 -361 260
-3 4 -50 40 -105 81 -110 83 -330 256 -386 304 -20 17 -44 38 -55 46 -23 18
-137 113 -144 120 -3 3 -36 32 -75 65 -38 33 -81 70 -95 82 -14 12 -37 32 -51
45 -260 230 -689 649 -914 893 -55 59 -114 123 -131 142 -18 18 -56 61 -85 94
-30 34 -73 82 -95 108 -23 25 -70 80 -104 121 -35 41 -66 77 -69 80 -3 3 -24
28 -46 55 -21 28 -42 52 -45 55 -4 3 -60 73 -126 155 -307 384 -612 813 -870
1221 -109 173 -97 153 -187 304 -210 353 -320 555 -498 910 -137 273 -160 323
-246 515 -24 55 -50 114 -58 130 -121 269 -320 790 -435 1135 -67 202 -135
419 -145 460 -1 3 -7 25 -15 50 -7 25 -14 50 -16 56 -1 6 -9 36 -17 65 -9 30
-23 80 -32 112 -8 31 -22 83 -31 115 -8 31 -17 64 -19 72 -2 8 -21 89 -43 180
-52 211 -92 393 -118 530 -3 14 -11 57 -19 95 -17 84 -20 104 -40 220 -9 50
-18 99 -19 110 -17 93 -22 127 -32 194 -4 25 -8 55 -10 66 -2 11 -9 58 -14
105 -6 47 -13 96 -15 110 -12 80 -20 143 -30 240 -3 30 -8 71 -10 90 -2 19 -7
64 -10 100 -4 36 -8 76 -10 90 -2 14 -6 66 -10 115 -3 50 -8 110 -10 135 -4
43 -11 155 -20 290 -23 373 -23 1131 0 1485 2 28 6 97 9 155 6 106 13 187 21
270 2 25 7 79 10 120 4 41 8 89 10 105 2 17 7 57 10 90 3 33 8 78 10 100 3 22
7 62 10 89 2 26 6 56 9 65 3 9 7 43 11 75 6 65 39 298 56 391 13 75 16 97 26
154 4 25 8 48 8 51 1 3 5 25 9 50 5 25 10 54 12 65 3 11 7 35 10 54 3 18 8 43
10 55 3 11 11 55 19 96 20 99 20 100 45 210 12 52 23 106 26 120 9 50 126 517
144 580 11 36 47 158 80 272 61 208 178 568 245 753 51 142 105 287 116 310 5
11 34 83 65 160 47 120 96 237 149 360 363 841 880 1749 1435 2520 59 83 289
390 317 425 7 8 53 67 103 130 50 63 99 124 108 135 9 11 37 45 62 75 25 30
47 57 50 60 3 3 40 46 82 95 42 50 90 106 108 125 17 19 57 64 88 99 281 318
717 756 1052 1056 36 32 72 65 81 74 9 9 27 25 40 36 13 11 74 63 134 115 205
176 655 535 765 610 12 8 37 26 55 40 18 14 58 43 90 65 31 22 69 49 84 61 34
27 270 188 419 286 146 96 497 312 659 406 117 68 159 92 286 161 31 17 83 45
115 63 67 37 668 338 675 338 3 0 49 20 102 45 116 54 463 203 590 252 50 19
104 41 120 48 28 12 74 29 345 128 241 89 578 196 870 278 96 27 189 53 205
58 38 13 272 71 305 77 14 3 39 9 55 14 25 8 173 42 240 56 11 2 43 8 70 14
28 6 59 12 70 14 27 6 226 46 246 51 9 2 32 6 50 9 19 3 43 7 54 10 11 2 40 7
65 11 25 4 54 9 65 11 38 7 207 34 278 44 40 6 83 12 97 15 28 4 51 7 220 29
63 9 140 18 170 21 30 3 71 8 90 10 19 3 64 7 100 10 36 3 76 7 90 10 14 2 66
6 115 10 50 3 110 8 135 10 46 4 213 15 310 20 30 2 147 6 260 10 113 4 206 8
207 8 4 5 572 -1 728 -7z"/>
<path d="M8169 26222 c0 -38 0 -18980 0 -19019 l1 -32 6153 4 c3383 1 6193 5
6242 8 50 3 141 9 204 12 63 3 137 7 165 10 28 2 96 7 151 10 55 3 118 8 140
10 22 2 69 7 105 10 160 13 231 20 305 30 17 2 57 6 90 10 33 3 71 8 85 10 14
2 50 6 80 9 30 4 66 8 80 10 14 2 46 7 71 10 25 4 57 9 70 11 13 2 59 9 102
15 85 13 93 14 182 29 33 6 78 13 100 17 22 3 72 12 110 20 39 8 86 17 105 20
19 3 107 21 195 41 200 43 177 38 260 58 39 9 79 18 90 21 136 26 787 227 970
299 39 15 99 38 135 52 325 124 764 342 1055 521 392 241 699 485 1000 792
153 155 152 154 391 453 8 10 57 80 108 155 260 382 453 796 595 1282 17 58
33 114 35 125 2 11 13 58 24 105 22 94 56 270 71 370 25 165 24 154 36 280 4
41 9 89 11 105 24 231 24 766 -1 1010 -9 83 -26 225 -31 250 -3 11 -7 39 -10
61 -2 23 -7 53 -9 65 -3 13 -8 38 -11 54 -96 527 -329 1051 -649 1460 -198
252 -459 494 -749 694 -58 39 -109 71 -114 71 -6 0 -12 4 -14 9 -4 12 -233
143 -363 208 -268 135 -598 267 -890 357 -82 25 -163 50 -180 55 -32 10 -114
33 -130 37 -5 1 -30 7 -55 14 -25 7 -53 14 -62 16 -24 5 -34 8 -183 44 -71 18
-141 34 -155 36 -21 4 -73 15 -245 50 -29 6 -124 22 -165 29 -19 3 -48 8 -65
12 -16 3 -39 7 -50 9 -11 1 -38 5 -60 9 -22 3 -53 8 -70 11 -16 3 -55 9 -85
14 -30 5 -77 11 -105 14 -27 3 -59 8 -70 10 -11 2 -45 7 -75 11 -30 3 -66 8
-80 10 -14 2 -70 9 -125 15 -55 6 -114 13 -132 15 -18 3 -63 7 -100 10 -37 3
-79 8 -93 10 -14 2 -59 7 -100 10 -41 4 -95 8 -120 11 -25 2 -83 6 -130 10
-47 3 -94 7 -105 9 -11 2 -42 4 -69 4 -59 1 -57 7 4 16 25 3 86 12 135 20 50
7 110 16 135 19 25 3 56 8 70 11 13 2 42 7 65 11 35 5 76 12 230 39 17 3 53
10 81 16 28 5 64 12 80 14 16 3 40 8 54 11 14 3 36 8 50 11 73 13 360 79 460
105 63 16 122 32 130 34 318 80 730 221 1030 352 190 82 444 210 552 279 21
12 40 23 43 23 3 0 18 8 33 19 15 10 74 49 132 86 89 58 157 105 205 142 207
160 252 199 420 368 122 123 252 273 324 375 237 337 379 616 497 979 45 136
118 420 129 501 3 25 8 52 10 60 2 8 6 29 9 45 12 74 15 93 21 135 3 25 8 56
10 70 2 14 7 59 11 100 3 41 8 89 10 105 23 215 22 804 -1 995 -3 19 -7 60
-10 90 -9 90 -31 246 -40 290 -3 14 -8 41 -11 60 -3 19 -12 63 -19 96 -8 34
-17 74 -20 88 -3 14 -7 36 -10 49 -3 12 -7 32 -9 45 -3 12 -7 26 -10 30 -3 5
-7 22 -10 38 -15 82 -133 435 -185 549 -87 191 -144 306 -231 460 -45 81 -211
325 -286 421 -153 196 -383 439 -548 579 -32 28 -64 55 -70 60 -34 31 -124
102 -221 173 -60 45 -115 86 -121 91 -5 4 -21 14 -35 21 -13 7 -26 16 -29 20
-4 6 -65 46 -112 75 -9 5 -75 45 -145 87 -629 379 -1418 673 -2338 872 -115
25 -221 47 -235 49 -14 3 -63 12 -110 21 -47 8 -102 18 -124 22 -37 5 -48 7
-106 18 -24 5 -85 15 -125 20 -11 2 -45 7 -75 11 -30 4 -62 9 -71 10 -9 2 -40
6 -70 10 -30 3 -65 8 -79 10 -14 2 -44 7 -67 10 -24 3 -62 8 -85 11 -24 3 -59
7 -78 9 -19 2 -57 6 -85 9 -50 6 -116 13 -210 21 -27 3 -72 7 -100 10 -120 11
-164 15 -235 20 -41 3 -111 8 -155 11 -171 11 -215 14 -360 19 -82 4 -175 9
-205 12 -30 3 -2689 7 -5907 8 l-5853 3 -1 -26z m11671 -3285 c36 -4 97 -9
135 -12 154 -12 247 -21 360 -36 131 -17 148 -19 200 -29 28 -5 66 -12 85 -14
19 -3 46 -8 60 -11 14 -3 39 -8 55 -11 239 -43 625 -160 825 -251 721 -326
1137 -818 1279 -1513 19 -91 22 -111 36 -225 13 -108 14 -137 14 -335 0 -200
-2 -260 -14 -347 -3 -24 -7 -64 -11 -90 -4 -40 -21 -133 -38 -218 -35 -167
-115 -392 -198 -554 -53 -104 -158 -275 -204 -331 -136 -167 -272 -306 -374
-383 -30 -23 -64 -50 -75 -60 -52 -48 -265 -179 -419 -257 -284 -144 -556
-240 -891 -316 -144 -33 -145 -33 -180 -39 -16 -3 -64 -12 -105 -20 -78 -15
-112 -20 -195 -30 -27 -3 -61 -8 -75 -10 -14 -3 -47 -7 -75 -10 -27 -3 -63 -8
-80 -10 -16 -2 -70 -7 -120 -10 -49 -4 -100 -8 -112 -10 -102 -16 -783 -20
-3973 -20 l-3655 0 -1 2575 c0 1416 1 2579 4 2583 4 9 7649 3 7742 -6z m170
-7410 c69 -4 163 -9 210 -12 47 -4 114 -8 150 -10 82 -4 217 -15 250 -20 14
-2 61 -7 105 -11 44 -3 87 -8 96 -9 9 -2 40 -6 70 -10 30 -3 65 -8 79 -10 14
-2 45 -7 70 -10 85 -11 277 -45 401 -71 152 -31 140 -28 219 -49 36 -9 73 -19
84 -21 39 -7 255 -77 361 -116 977 -359 1492 -985 1571 -1908 17 -191 4 -586
-21 -680 -2 -8 -7 -37 -10 -65 -16 -132 -82 -361 -150 -518 -168 -394 -450
-709 -851 -953 -276 -168 -690 -324 -1069 -405 -33 -7 -64 -14 -70 -15 -16 -3
-53 -10 -145 -28 -129 -23 -142 -25 -190 -31 -25 -3 -54 -8 -65 -10 -19 -4
-130 -17 -255 -30 -25 -3 -63 -7 -85 -10 -22 -2 -80 -7 -130 -10 -49 -3 -112
-8 -140 -10 -166 -14 -801 -17 -4400 -16 -2194 0 -3992 0 -3995 0 -3 1 -5
1136 -5 2524 l0 2522 3895 -1 c2142 -1 3951 -4 4020 -7z"/>
</g>
</svg>
